<?xml version="1.0" encoding="UTF-8"?>
<svg id="Layer_1" data-name="Layer 1" xmlns="http://www.w3.org/2000/svg" viewBox="0 0 622 622">
  <defs>
    <style>
      .cls-1 {
        fill: #24252b;
      }

      .cls-2 {
        fill: #fff;
      }
    </style>
  </defs>
  <g id="Cloudflare">
    <circle class="cls-1" cx="311" cy="311" r="310"/>
    <g>
      <path class="cls-2" d="M444.95,257.66c-1.07,0-2.01.8-2.41,1.88l-6.44,22.39c-2.82,9.65-1.74,18.5,2.95,25.07,4.29,6.03,11.53,9.52,20.25,9.92l35.13,2.15c1.07,0,2.01.54,2.55,1.34.54.8.67,2.01.4,2.95-.54,1.61-2.15,2.82-3.89,2.95l-36.61,2.15c-19.84.94-41.16,16.89-48.67,36.47l-2.68,6.84c-.54,1.34.4,2.68,1.88,2.68h125.77c1.47,0,2.82-.94,3.22-2.41,2.15-7.78,3.35-15.96,3.35-24.4,0-49.61-40.49-90.11-90.24-90.11-1.48,0-3.08,0-4.56.13Z"/>
      <path class="cls-2" d="M396.95,363.32c2.82-9.65,1.74-18.5-2.95-25.07-4.29-6.03-11.53-9.52-20.25-9.92l-165.06-2.15c-1.07,0-2.01-.54-2.55-1.34s-.67-1.88-.4-2.95c.54-1.61,2.15-2.82,3.89-2.95l166.54-2.15c19.71-.94,41.16-16.89,48.67-36.47l9.52-24.81c.4-1.07.54-2.15.27-3.22-10.73-48.54-54.04-84.74-105.79-84.74-43.55,0-81.07,25.67-98.31,62.64-2.48,5.31-8.77,7.66-14.15,5.32-7.38-3.22-15.69-4.69-24.44-3.87-22.93,2.28-41.3,20.65-43.58,43.58-.22,2.37-.28,4.71-.19,7.02.2,5.38-3.58,10.12-8.89,11.07-32.46,5.8-57.03,34.11-57.03,68.27,0,3.35.27,6.7.67,10.06.27,1.61,1.61,2.82,3.22,2.82h304.64c1.74,0,3.35-1.21,3.89-2.95l2.28-8.18Z"/>
    </g>
  </g>
</svg>