<?xml version="1.0" encoding="UTF-8"?>
<svg id="Layer_1" data-name="Layer 1" xmlns="http://www.w3.org/2000/svg" viewBox="0 0 622 622">
  <defs>
    <style>
      .cls-1 {
        fill: #24252b;
      }

      .cls-2 {
        fill: #fff;
      }
    </style>
  </defs>
  <g id="Cloudflare_Networks">
    <circle class="cls-1" cx="311" cy="311" r="310"/>
    <path class="cls-2" d="M496.38,189.6c-.04-12.24-4.4-24.07-12.32-33.39-7.92-9.33-18.89-15.55-30.96-17.56-12.07-2.02-24.46.31-34.99,6.55-10.52,6.25-18.49,16.02-22.5,27.58l-166.68-.53c-.8-9.52-4.23-18.64-9.9-26.33-5.67-7.7-13.35-13.67-22.21-17.26-8.86-3.59-18.53-4.67-27.96-3.1-9.43,1.57-18.23,5.72-25.45,11.99-7.21,6.27-12.55,14.41-15.42,23.53-2.87,9.12-3.15,18.85-.83,28.12,2.33,9.27,7.17,17.71,14,24.4,6.83,6.68,15.38,11.34,24.7,13.47l29.4,173.93c-7.53,4.5-13.8,10.85-18.2,18.44-4.41,7.59-6.81,16.17-6.99,24.95-.18,8.77,1.88,17.45,5.98,25.21,4.1,7.76,10.11,14.35,17.45,19.15,7.35,4.8,15.79,7.65,24.55,8.29,8.75.64,17.52-.96,25.49-4.65,7.96-3.69,14.86-9.34,20.04-16.42,5.18-7.08,8.47-15.37,9.57-24.08l105.16-30.53c4.37,6.97,10.34,12.8,17.41,17,7.07,4.2,15.05,6.66,23.26,7.16,8.21.51,16.43-.96,23.96-4.26,7.53-3.31,14.17-8.36,19.36-14.75,5.19-6.38,8.78-13.91,10.48-21.97,1.7-8.05,1.45-16.39-.72-24.33-2.17-7.94-6.2-15.24-11.76-21.31-5.56-6.07-12.49-10.72-20.2-13.57l15.9-105.29c11.45-2.58,21.68-8.97,29.02-18.14,7.34-9.16,11.34-20.54,11.36-32.28ZM390.96,352.63l-68.98-39.11c1.34-4.63,2.03-9.42,2.06-14.23-.03-5.68-.99-11.33-2.86-16.69l88.2-55.07c5.69,5.33,12.51,9.3,19.95,11.64l-15.5,103.56c-8.33,1.36-16.19,4.77-22.88,9.91ZM395.08,205.04l-88.66,55.41c-7.37-6.53-16.45-10.82-26.17-12.35-9.72-1.53-19.68-.25-28.7,3.7l-32.33-44.83c1.85-2.56,3.47-5.28,4.86-8.11l169.61.53c.4,1.93.86,3.79,1.4,5.65ZM247.02,299.28c-.03-4.99,1.43-9.88,4.18-14.04,2.75-4.16,6.68-7.41,11.29-9.34,4.6-1.93,9.68-2.45,14.58-1.49,4.9.96,9.4,3.35,12.94,6.87,3.54,3.52,5.95,8.01,6.94,12.91.98,4.89.49,9.97-1.41,14.58-1.9,4.61-5.13,8.56-9.28,11.33-4.15,2.78-9.03,4.26-14.02,4.26-6.66,0-13.05-2.64-17.78-7.34-4.72-4.7-7.39-11.08-7.43-17.74ZM444.83,164.73c4.99,0,9.86,1.48,14.01,4.25,4.15,2.77,7.38,6.71,9.28,11.31,1.91,4.61,2.41,9.67,1.44,14.56-.97,4.89-3.37,9.38-6.9,12.91-3.53,3.53-8.02,5.93-12.91,6.9-4.89.97-9.96.47-14.56-1.43-4.61-1.91-8.54-5.14-11.32-9.28-2.77-4.15-4.25-9.02-4.25-14.01,0-6.69,2.66-13.1,7.38-17.83,4.73-4.73,11.14-7.38,17.83-7.38ZM152.17,176.57c0-4.99,1.48-9.86,4.25-14.01,2.77-4.15,6.71-7.38,11.31-9.28,4.61-1.91,9.68-2.41,14.56-1.43,4.89.97,9.38,3.37,12.91,6.9,3.53,3.53,5.93,8.02,6.9,12.91.97,4.89.47,9.96-1.43,14.57-1.91,4.61-5.14,8.54-9.28,11.31-4.15,2.77-9.02,4.25-14.01,4.25-6.69,0-13.1-2.66-17.83-7.38-4.73-4.73-7.38-11.14-7.38-17.83ZM192.68,226.05c2.02-.61,4-1.37,5.92-2.26l32.13,44.63c-4.19,5.59-7.2,11.98-8.85,18.76-1.65,6.79-1.9,13.84-.75,20.73,1.16,6.89,3.7,13.47,7.48,19.35,3.78,5.88,8.71,10.93,14.49,14.85l-17.16,51.68h-4.92l-28.33-167.75ZM221.81,470.69c-4.99,0-9.86-1.48-14.01-4.25-4.15-2.77-7.38-6.72-9.28-11.32-1.91-4.61-2.4-9.68-1.42-14.57.98-4.89,3.39-9.38,6.92-12.91,3.53-3.52,8.03-5.92,12.92-6.89,4.89-.96,9.97-.45,14.57,1.46,4.61,1.92,8.54,5.16,11.3,9.31,2.76,4.15,4.23,9.03,4.22,14.02-.02,6.68-2.68,13.07-7.41,17.78-4.73,4.71-11.13,7.36-17.8,7.36ZM269.57,425.39c-3.89-9.16-10.33-17.01-18.56-22.61l17.23-51.81h3.99c13.47,0,26.41-5.28,36.05-14.7l66.51,37.45c-2.62,6.33-3.98,13.11-3.99,19.95v2.13l-101.23,29.6ZM422.55,419.14c-4.99,0-9.86-1.48-14.01-4.25-4.15-2.77-7.38-6.71-9.29-11.32-1.91-4.61-2.41-9.67-1.43-14.56.97-4.89,3.37-9.38,6.9-12.91,3.53-3.53,8.02-5.93,12.91-6.9,4.89-.97,9.96-.47,14.57,1.44,4.61,1.91,8.54,5.14,11.31,9.28,2.77,4.15,4.25,9.02,4.25,14.01-.02,3.32-.69,6.61-1.98,9.67-1.29,3.06-3.18,5.84-5.54,8.17-2.37,2.33-5.17,4.17-8.25,5.41-3.08,1.24-6.38,1.87-9.7,1.83l.27.13Z"/>
  </g>
</svg>