<?xml version="1.0" encoding="UTF-8"?>
<svg id="Layer_1" data-name="Layer 1" xmlns="http://www.w3.org/2000/svg" viewBox="0 0 622 622">
  <defs>
    <style>
      .cls-1 {
        fill: #24252b;
      }

      .cls-2 {
        fill: #fff;
      }
    </style>
  </defs>
  <g id="Cloudflare_Access">
    <circle class="cls-1" cx="311" cy="311" r="310"/>
    <g>
      <g>
        <path class="cls-2" d="M359.7,290.58h0c-2.68,6.45-8.98,10.66-15.97,10.66H105.05c-4.59,0-8.83-2.41-11.18-6.35h0c-5.17-8.68,1.08-19.68,11.18-19.68h217.48s-23.05-23.11-23.05-23.11c-5.08-5.09-5.07-13.33.01-18.42h0c5.09-5.09,13.34-5.09,18.43,0l38.04,38.04c4.95,4.95,6.43,12.4,3.74,18.86Z"/>
        <path class="cls-2" d="M414.79,331.36c2.7,6.48,1.21,13.95-3.75,18.92l-38.03,38.01c-5.1,5.1-13.36,5.1-18.47.01h0c-5.08-5.09-5.09-13.33,0-18.42l22.98-23.02s0-.07-.03-.07h-245.36c-4.61,0-8.89-2.43-11.24-6.41h0c-5.15-8.7,1.12-19.71,11.24-19.71h266.67c7,0,13.32,4.21,16,10.68h0Z"/>
      </g>
      <path class="cls-2" d="M337.22,163.07c-59.4-.46-110.9,34.28-134.84,84.56-3.52,7.4,1.95,15.93,10.14,15.93h0c4.31,0,8.24-2.47,10.09-6.36,20.35-42.73,64.15-72.23,114.65-71.75,68.2.65,123.81,56.34,124.34,124.55.54,69.69-55.99,126.56-125.55,126.56-49.97,0-93.22-29.35-113.41-71.72-1.86-3.91-5.79-6.41-10.11-6.41h0c-8.18,0-13.67,8.52-10.15,15.91,23.77,49.98,74.76,84.6,133.68,84.6,81.95,0,148.55-66.98,147.94-149.07-.6-80.47-66.3-146.17-146.76-146.8Z"/>
    </g>
  </g>
</svg>