<?xml version="1.0" encoding="UTF-8"?>
<svg id="Layer_1" data-name="Layer 1" xmlns="http://www.w3.org/2000/svg" viewBox="0 0 622 622">
  <defs>
    <style>
      .cls-1 {
        fill: #24252b;
      }

      .cls-2 {
        fill: #fff;
      }
    </style>
  </defs>
  <circle class="cls-1" cx="311" cy="311" r="310"/>
  <g id="CyberChef">
    <path class="cls-2" d="M417.11,147.57c-1.32-.05-2.63-.07-3.94-.07-15.43.05-29.67-8.07-37.8-21.19-13.34-21.52-37.18-35.85-64.37-35.85s-51.03,14.33-64.37,35.85c-8.17,13.17-22.5,21.21-38,21.19-.31,0-.62,0-.93,0-49.81.44-90.33,41.55-90.08,91.36.19,37.36,22.91,69.59,55.27,83.44,7.01,3,14.57,4.51,22.2,4.51h2.12c6.31,0,11.42,5.11,11.42,11.42v1.83c0,3.98,3.23,7.21,7.21,7.21h6.04c3.98,0,7.21-3.23,7.21-7.21v-13.25h20.47v13.25c0,3.98,3.23,7.21,7.21,7.21h6.04c3.98,0,7.21-3.23,7.21-7.21v-13.25h20.47v13.25c0,3.98,3.23,7.21,7.21,7.21h6.04c3.98,0,7.21,3.23,7.21,7.21v6.04c0,3.98-3.23,7.21-7.21,7.21h-6.04c-3.98,0-7.21-3.23-7.21-7.21v-6.04c0-3.98-3.23-7.21-7.21-7.21h-6.04c-3.98,0-7.21,3.23-7.21,7.21v6.04c0,3.98-3.23,7.21-7.21,7.21h-6.04c-3.98,0-7.21,3.23-7.21,7.21v6.04c0,3.98,3.23,7.21,7.21,7.21h26.52c3.98,0,7.21,3.23,7.21,7.21v26.52c0,3.98,3.23,7.21,7.21,7.21h6.04c3.98,0,7.21-3.23,7.21-7.21v-6.04c0-3.98,3.23-7.21,7.21-7.21h6.04c3.98,0,7.21,3.23,7.21,7.21v6.04c0,3.98-3.23,7.21-7.21,7.21h-6.04c-3.98,0-7.21,3.23-7.21,7.21v6.04c0,3.98-3.23,7.21-7.21,7.21h-6.04c-3.98,0-7.21,3.23-7.21,7.21v6.04c0,3.98-3.23,7.21-7.21,7.21h-6.04c-3.98,0-7.21,3.23-7.21,7.21v6.04c0,3.98,3.23,7.21,7.21,7.21h128.88c3.98,0,7.21-3.23,7.21-7.21v-145.14c0-6.31,5.11-11.42,11.42-11.42h0c5.71,0,11.41-.8,16.84-2.55,36.27-11.71,62.53-45.2,62.75-85.35.27-48.76-38.55-89.44-87.27-91.33ZM351.95,462.9c0,3.98-3.23,7.21-7.21,7.21h-6.04c-3.98,0-7.21-3.23-7.21-7.21v-6.04c0-3.98,3.23-7.21,7.21-7.21h6.04c3.98,0,7.21,3.23,7.21,7.21v6.04ZM351.95,381.01c0,3.98-3.23,7.21-7.21,7.21h-6.04c-3.98,0-7.21-3.23-7.21-7.21v-6.04c0-3.98,3.23-7.21,7.21-7.21h6.04c3.98,0,7.21,3.23,7.21,7.21v6.04ZM392.89,401.48c0,3.98-3.23,7.21-7.21,7.21h-6.04c-3.98,0-7.21-3.23-7.21-7.21v-6.04c0-3.98,3.23-7.21,7.21-7.21h6.04c3.98,0,7.21,3.23,7.21,7.21v6.04ZM351.95,340.06c0,3.98-3.23,7.21-7.21,7.21h-6.04c-3.98,0-7.21-3.23-7.21-7.21v-13.25h20.47v13.25Z"/>
    <rect class="cls-2" x="249.58" y="408.7" width="20.47" height="20.47" rx="7.21" ry="7.21"/>
    <rect class="cls-2" x="270.05" y="429.17" width="20.47" height="20.47" rx="7.21" ry="7.21"/>
    <rect class="cls-2" x="249.58" y="449.65" width="20.47" height="20.47" rx="7.21" ry="7.21"/>
    <rect class="cls-2" x="229.11" y="470.12" width="20.47" height="20.47" rx="7.21" ry="7.21"/>
    <rect class="cls-2" x="208.63" y="408.7" width="20.47" height="20.47" rx="7.21" ry="7.21"/>
    <rect class="cls-2" x="229.11" y="429.17" width="20.47" height="20.47" rx="7.21" ry="7.21"/>
    <rect class="cls-2" x="229.11" y="347.28" width="20.47" height="20.47" rx="7.21" ry="7.21"/>
    <rect class="cls-2" x="229.11" y="388.22" width="20.47" height="20.47" rx="7.21" ry="7.21"/>
    <path class="cls-2" d="M406.15,511.06h-190.3c-3.98,0-7.21,3.23-7.21,7.21v6.04c0,3.98,3.23,7.21,7.21,7.21h190.3c3.98,0,7.21-3.23,7.21-7.21v-6.04c0-3.98-3.23-7.21-7.21-7.21Z"/>
  </g>
</svg>