<?xml version="1.0" encoding="UTF-8"?>
<svg id="Layer_1" data-name="Layer 1" xmlns="http://www.w3.org/2000/svg" viewBox="0 0 622 622">
  <defs>
    <style>
      .cls-1 {
        fill: #24252b;
      }

      .cls-2 {
        fill: #fff;
      }
    </style>
  </defs>
  <g id="Home_Assistant">
    <circle class="cls-1" cx="311" cy="311" r="310"/>
    <path class="cls-2" d="M488.43,299.62v112.84c0,26.31-21.33,47.64-47.64,47.64h-116.33v-44.96l64.06-64.07c4.22,1.72,8.89,2.56,13.79,2.3,15.92-.85,28.94-13.66,30.05-29.55,1.36-19.48-14.79-35.57-34.29-34.1-15.83,1.19-28.54,14.19-29.38,30.05-.22,4.06.32,7.96,1.5,11.58l-45.73,45.72v-118.33c11.51-5.37,19.28-17.4,18.37-31.12-1.09-16.26-14.6-29.23-30.89-29.69-18.05-.52-32.83,13.96-32.83,31.88,0,12.81,7.55,23.85,18.44,28.93v168.51l-45.32-45.31c1.31-3.71,1.94-7.73,1.77-11.92-.65-16.05-13.47-29.3-29.49-30.47-19.4-1.41-35.47,14.56-34.21,33.94,1.02,15.75,13.75,28.57,29.49,29.69,4.82.34,9.44-.39,13.64-1.98l58.9,58.91h-111.11c-26.31,0-47.64-21.33-47.64-47.64v-113.18c0-12.63,5.02-24.75,13.95-33.69l129.62-129.62c18.6-18.6,48.77-18.6,67.37,0l129.96,129.96c8.93,8.93,13.95,21.05,13.95,33.69Z"/>
  </g>
</svg>