<?xml version="1.0" encoding="UTF-8"?>
<svg id="Layer_1" data-name="Layer 1" xmlns="http://www.w3.org/2000/svg" viewBox="0 0 622 622">
  <defs>
    <style>
      .cls-1 {
        fill: #24252b;
      }

      .cls-2 {
        fill: #fff;
      }
    </style>
  </defs>
  <g id="Mainsail">
    <circle class="cls-1" cx="311" cy="311" r="310"/>
    <g>
      <path class="cls-2" d="M358.06,205.26l-150.57,225.77c-2.62,3.93-7.03,6.29-11.75,6.29h-55.97c-11.28,0-18.01-12.57-11.75-21.96l189.65-284.37c6.93-10.39,22.94-7.34,25.56,4.88,1.2,5.61,2.53,11.27,4,16.99,3.54,13.74,7.69,26.97,12.33,39.69,1.55,4.24,1.01,8.96-1.5,12.72Z"/>
      <path class="cls-2" d="M417.23,316.47l-76.4,114.56c-2.62,3.93-7.03,6.29-11.75,6.29h-55.97c-11.28,0-18.01-12.57-11.75-21.96l104.94-157.36c5.83-8.74,18.83-8.28,24.02.85,8.42,14.8,17.39,28.66,26.66,41.6,3.41,4.77,3.5,11.15.25,16.03Z"/>
      <path class="cls-2" d="M494.01,402.27l-19.18,28.76c-2.62,3.93-7.03,6.29-11.75,6.29h-55.97c-11.28,0-18.01-12.57-11.75-21.96l41.41-62.09c5.05-7.58,15.86-8.47,22.07-1.8,11.28,12.11,22.41,22.96,32.94,32.54,5.16,4.7,6.1,12.46,2.23,18.26Z"/>
    </g>
  </g>
</svg>