<?xml version="1.0" encoding="UTF-8"?>
<svg id="Layer_1" data-name="Layer 1" xmlns="http://www.w3.org/2000/svg" viewBox="0 0 622 622">
  <defs>
    <style>
      .cls-1 {
        fill: #24252b;
      }

      .cls-2 {
        fill: #fff;
      }
    </style>
  </defs>
  <path class="cls-1" d="M621,311c0,114.33-61.89,214.2-154,267.94-10.3,6.01-20.99,11.45-32,16.27-37.97,16.59-79.91,25.79-124,25.79s-85.29-9.04-123-25.36c-11.02-4.77-21.7-10.16-32-16.12C63.34,525.92,1,425.74,1,311,1,139.79,139.79,1,311,1s310,138.79,310,310Z"/>
  <g>
    <path class="cls-2" d="M466.5,227.5v351.22c0,.13-.07.26-.18.33-10.08,5.87-20.53,11.19-31.29,15.92-.24.11-.53-.07-.53-.34V233.5c0-1.4-.02-2.79-.07-4.18v-.02c.05-.92.07-1.86.07-2.8,0-4.69-.59-9.25-1.71-13.59,0,0,0-.02-.01-.03-6.04-23.51-27.38-40.88-52.78-40.88-20.63,0-38.59,11.47-47.84,28.38l91.5,158.48h-225.31l91.49-158.47c-9.24-16.92-27.2-28.39-47.84-28.39-25.4,0-46.74,17.37-52.78,40.88-.01.01-.01.02-.01.03-1.12,4.34-1.71,8.9-1.71,13.59,0,.94.02,1.88.07,2.8v.02c-.05,1.39-.07,2.78-.07,4.18v361.56c0,.27-.28.46-.52.35-10.77-4.69-21.21-9.96-31.29-15.78-.11-.07-.19-.2-.19-.33V229.36c0-91.4,74.73-163.06,165.94-157.02,38.78,2.57,73.68,19.35,99.52,45.2,28.14,28.14,45.54,67.02,45.54,109.96Z"/>
    <path class="cls-1" d="M434.43,229.32c.05,1.39.07,2.78.07,4.18v361.51c0,.12-.07.23-.18.28-37.92,16.54-79.8,25.71-123.82,25.71s-85.15-9.01-122.82-25.28c-.11-.05-.18-.16-.18-.28V233.5c0-1.4.02-2.79.07-4.18v-.02c-.05-.92-.07-1.86-.07-2.8,0-4.69.59-9.25,1.71-13.59,0-.01,0-.02.01-.03,6.04-23.51,27.38-40.88,52.78-40.88,29.93,0,54.23,24.13,54.49,54h.01v45.99c0,4.98-4.04,9.01-9.01,9.01h-16.66c-8.96,0-13.44,10.83-7.11,17.16l39.7,39.7c3.93,3.93,10.29,3.93,14.22,0l39.7-39.7c6.33-6.33,1.85-17.16-7.11-17.16h-15.72c-4.98,0-9.01-4.04-9.01-9.01v-45.99h.01c.26-29.87,24.56-54,54.49-54,25.4,0,46.74,17.37,52.78,40.88.01.01.01.02.01.03,1.12,4.34,1.71,8.9,1.71,13.59,0,.94-.02,1.88-.07,2.8v.02Z"/>
    <circle class="cls-2" cx="242" cy="226.5" r="14.5"/>
    <circle class="cls-2" cx="380" cy="226.5" r="14.5"/>
  </g>
</svg>