<?xml version="1.0" encoding="UTF-8"?>
<svg id="Layer_1" data-name="Layer 1" xmlns="http://www.w3.org/2000/svg" viewBox="0 0 622 622">
  <defs>
    <style>
      .cls-1 {
        fill: #24252b;
      }

      .cls-2, .cls-3 {
        fill: #fff;
      }

      .cls-3 {
        fill-rule: evenodd;
      }
    </style>
  </defs>
  <g id="Portainer">
    <circle class="cls-1" cx="311" cy="311" r="310"/>
    <g>
      <rect class="cls-2" x="257.64" y="213.32" width="38.61" height="37.84" rx="8.07" ry="8.07"/>
      <rect class="cls-2" x="214.21" y="229.98" width="38.61" height="37.84" rx="8.07" ry="8.07"/>
      <rect class="cls-2" x="214.21" y="272.26" width="38.61" height="37.84" rx="8.07" ry="8.07"/>
      <rect class="cls-2" x="257.64" y="272.26" width="38.61" height="37.84" rx="8.07" ry="8.07"/>
      <path class="cls-3" d="M279.51,177.88h-5.13v42.11h5.13v-42.11Z"/>
      <path class="cls-3" d="M389.84,95.25l-135.81,76.31h-67.04c-4.57,0-8.27,3.7-8.27,8.27h0c0,4.57,3.7,8.27,8.27,8.27h202.76c1.74,0,3.14,1.41,3.14,3.14v146.39c0,2.05,1.36,3.85,3.33,4.41h.03c2.54.72,5.03,1.57,7.46,2.55,2.95,1.19,6.15-1.01,6.15-4.18V106.98c0-7.43-6.02-13.45-13.45-13.45h0c-2.31,0-4.58.59-6.59,1.72ZM292.76,168.93l95.46-53.72c2.09-1.18,4.68.33,4.68,2.74v50.47c0,1.74-1.41,3.14-3.14,3.14h-96.31c-1.45,0-1.95-1.92-.69-2.63Z"/>
      <path class="cls-3" d="M232.02,373.29c-8.98.62-17.76,2.91-25.82,6.71-1.48.7-3.24.19-4.12-1.18-6.45-10.08-10.19-22.05-10.19-34.9,0-10.21,2.36-19.87,6.57-28.47.55-1.13,1.68-1.86,2.94-1.86h110.66c1.26,0,2.39.73,2.94,1.86,1.83,3.74,3.31,7.68,4.4,11.78.63,2.36-1.47,4.52-3.85,3.99-.02,0-.03,0-.05-.01-5.12-1.15-10.42-1.73-15.73-1.73-15.97,0-31.65,5.37-44.13,15.14-9.12,7.13-16.3,16.38-20.86,26.74-.49,1.11-1.55,1.86-2.76,1.94Z"/>
      <path class="cls-3" d="M443.27,460.79c0,31.3-26.01,56.66-57.97,56.66-12.7,0-24.51-3.93-33.97-10.66-1.72-1.22-4.09-.93-5.45.68-10.68,12.65-26.8,21.01-45.01,21.01-21.44,0-40.29-11.43-50.4-28.37-.87-1.46-2.53-2.23-4.21-1.94-3.05.52-6.12.77-9.33.77-31.96,0-58.2-25.35-58.2-56.66,0-4.5.54-8.87,1.56-13.07,4.1-16.95,16.01-30.95,31.85-38.21,7.52-3.45,15.92-5.37,24.79-5.37h3.05c1.82,0,3.4-1.21,3.92-2.96,7.02-23.42,29.41-40.69,55.86-40.69,4.47,0,8.82.49,13.01,1.43,3.02.67,5.94,1.57,8.76,2.68,7.67,3.02,14.55,7.58,20.24,13.28,0,0,.02.02.02.02,1.35,1.35,3.43,1.61,5.07.62,3.7-2.23,7.67-4.04,11.88-5.37,5.68-1.8,11.78-2.75,18.18-2.75,5.54,0,10.91.77,15.99,2.19,6.13,1.72,11.86,4.4,16.98,7.87,15.11,10.22,25.01,27.27,25.01,46.59,0,5.73-.88,11.28-2.49,16.66-.35,1.17-.14,2.44.57,3.43,6.37,9.01,10.3,20.29,10.3,32.16Z"/>
    </g>
  </g>
</svg>