<?xml version="1.0" encoding="UTF-8"?>
<svg id="Layer_1" data-name="Layer 1" xmlns="http://www.w3.org/2000/svg" viewBox="0 0 622 622">
  <defs>
    <style>
      .cls-1 {
        fill: #24252b;
      }

      .cls-2 {
        fill: #fff;
        fill-rule: evenodd;
      }
    </style>
  </defs>
  <circle class="cls-1" cx="311" cy="311" r="310"/>
  <g>
    <path id="path55" class="cls-2" d="M222.83,145.35c-7.84,0-14.67,1.4-21.31,4.22-4.87,2.13-9.28,4.84-13.32,8.2-2.15,1.79-2.32,5.04-.44,7.11l119.85,131.43c1.97,2.16,5.37,2.16,7.33,0l119.65-131.43c1.89-2.07,1.71-5.32-.45-7.11-4.05-3.37-8.54-6.07-13.72-8.2-6.23-2.81-13.46-4.22-20.9-4.22-7.84,0-15.28,1.61-21.91,4.62-6.84,3.02-12.47,7.44-17.69,12.66l-44.99,49.82c-1.96,2.17-5.37,2.18-7.34.02l-45.57-49.85c-5.03-5.23-10.66-9.65-17.69-12.66-6.23-3.02-13.67-4.62-21.52-4.62ZM307.62,325.48l-119.81,131.58c-1.91,2.1-1.68,5.37.51,7.18,4,3.3,8.38,6.08,13.2,8.19,6.63,2.81,13.47,4.22,20.91,4.22,8.24,0,15.28-1.81,21.91-4.62,7.04-3.22,13.06-7.44,18.09-12.66l45.18-49.82c1.97-2.17,5.38-2.17,7.35,0l45.17,49.82c5.03,5.23,10.66,9.45,17.49,12.66,6.63,2.81,13.87,4.62,21.91,4.62,7.44,0,14.67-1.4,20.9-4.22,5.15-2.12,9.61-4.92,13.65-8.23,2.17-1.78,2.37-5.05.47-7.13l-119.61-131.58c-1.97-2.16-5.37-2.17-7.34,0Z"/>
    <path class="cls-2" d="M161.72,187.17c-8.04.2-15.88,1.8-22.92,4.82-5.57,2.32-10.55,5.36-15.03,9.02-2.19,1.79-2.4,5.07-.49,7.16l90.49,99.49c1.72,1.89,1.72,4.79,0,6.68l-90.54,99.36c-1.89,2.07-1.7,5.31.44,7.12,4.5,3.8,9.51,6.9,15.13,9.4,6.95,3.18,14.69,4.59,22.62,5.01.2.01.39.01.59,0,8.53-.42,16.48-1.83,23.84-5.41,7.44-3.42,13.86-8.05,19.29-13.88l92.45-101.6c1.72-1.89,1.72-4.79,0-6.68l-92.32-101.26c-.09-.09-.17-.18-.26-.27-5.79-5.57-11.98-10.15-19.36-13.74-7.44-3.42-15.28-5.02-23.93-5.23Z"/>
    <path class="cls-2" d="M460.06,187.17c-8.64.2-16.29,1.81-23.73,5.23-7.44,3.62-13.87,8.24-19.5,13.87l-92.06,101.41c-1.72,1.89-1.72,4.77,0,6.67l92.07,101.6c5.63,5.83,12.06,10.46,19.5,13.88,7.36,3.58,14.91,4.99,23.44,5.41.19,0,.39,0,.58,0,8.52-.42,15.87-1.83,22.83-5.01,5.94-2.5,10.78-5.6,15.19-9.41,2.1-1.82,2.28-5.02.41-7.08l-90.37-99.39c-1.72-1.89-1.72-4.78,0-6.67l90.32-99.52c1.88-2.08,1.69-5.32-.46-7.12-4.38-3.67-9.2-6.71-15.09-9.04-7.04-3.02-14.47-4.62-23.11-4.82Z"/>
  </g>
</svg>