<?xml version="1.0" encoding="UTF-8"?>
<svg id="Layer_1" data-name="Layer 1" xmlns="http://www.w3.org/2000/svg" viewBox="0 0 622 622">
  <defs>
    <style>
      .cls-1 {
        fill: #24252b;
      }

      .cls-2 {
        fill: #fff;
      }
    </style>
  </defs>
  <g id="SpotDL">
    <circle class="cls-1" cx="311" cy="311" r="310"/>
    <path class="cls-2" d="M96,306c0-11.87,9.63-21.5,21.5-21.5s21.5,9.63,21.5,21.5c0,.51-.02,1.02-.06,1.53.05.55.07,1.11.07,1.67v.08c-.01.4-.01.81-.01,1.22,0,.74,0,1.48.01,2.22.65,94.43,77.41,170.78,171.99,170.78s171.34-76.35,171.99-170.78c.01-.74.01-1.48.01-2.22,0-.41,0-.82-.01-1.22-.6-87.33-66.3-159.2-150.99-169.51v121.2l21.97-21.97c8.39-8.39,22.01-8.39,30.4,0,4.2,4.2,6.3,9.7,6.3,15.2s-2.1,11-6.3,15.2l-43.03,43.04-17.57,17.57c-7.09,7.09-18.57,7.09-25.66,0l-17.57-17.57-43.04-43.04c-8.39-8.39-8.39-22.01,0-30.4,4.2-4.2,9.7-6.29,15.2-6.29s11,2.09,15.2,6.29l21.1,21.1V114.68c0-9.84,7.84-17.94,17.68-18.14,1.43-.03,2.88-.04,4.32-.04,117.64,0,213.23,94.5,214.98,211.73.01.92.02,1.84.02,2.77s-.01,1.85-.02,2.77c-.02,1.02-.04,2.04-.07,3.06-.04,1.46-.1,2.92-.17,4.37-.19,3.94-.49,7.86-.9,11.74-.17,1.74-.38,3.47-.6,5.19-.38,2.98-.82,5.93-1.33,8.86-.24,1.45-.5,2.9-.78,4.33-.33,1.75-.69,3.48-1.07,5.2-.17.8-.35,1.6-.54,2.4-.67,2.93-1.4,5.83-2.19,8.71-.39,1.41-.79,2.81-1.21,4.21-1.83,6.17-3.94,12.23-6.3,18.16-.28.7-.56,1.4-.85,2.1-1.04,2.54-2.13,5.06-3.27,7.55-.3.67-.61,1.34-.93,2.01-1.59,3.39-3.26,6.74-5.02,10.03-.28.52-.56,1.04-.84,1.55-.7,1.29-1.42,2.58-2.16,3.86-.41.73-.84,1.46-1.27,2.19-.3.52-.6,1.03-.91,1.54-.29.48-.57.95-.86,1.42-.45.73-.9,1.47-1.36,2.2-.43.7-.88,1.39-1.32,2.08-.05.09-.11.18-.17.27-.43.67-.87,1.34-1.31,2-2.84,4.32-5.84,8.52-8.99,12.61-.46.59-.91,1.18-1.37,1.77-1.66,2.12-3.37,4.2-5.11,6.26-.55.65-1.11,1.3-1.68,1.95-1.14,1.32-2.31,2.63-3.49,3.93-.5.54-.99,1.08-1.5,1.62-.64.69-1.29,1.38-1.95,2.07-.59.62-1.19,1.24-1.79,1.85-1.8,1.84-3.63,3.65-5.5,5.42-1.24,1.19-2.5,2.36-3.77,3.51-.69.62-1.38,1.24-2.08,1.86-.55.49-1.1.97-1.65,1.44-.08.07-.16.14-.24.21-.59.51-1.18,1.01-1.77,1.51-.68.58-1.37,1.15-2.06,1.72-.62.51-1.24,1.02-1.87,1.52-.71.58-1.43,1.15-2.15,1.71-.67.53-1.35,1.06-2.04,1.58-.71.55-1.42,1.09-2.14,1.62-.66.49-1.32.98-1.99,1.47l-2.04,1.47c-2.88,2.04-5.81,4.01-8.78,5.91-.66.42-1.32.84-1.98,1.25-2.22,1.39-4.46,2.73-6.73,4.03-.75.43-1.5.86-2.26,1.28-.76.42-1.51.84-2.27,1.25-.76.41-1.52.82-2.29,1.22-1.53.81-3.08,1.6-4.63,2.37-.78.39-1.56.77-2.34,1.14-4.24,2.04-8.55,3.95-12.94,5.71-.63.26-1.26.51-1.9.75-1.47.58-2.95,1.14-4.43,1.68-.62.23-1.25.45-1.88.68l-1.11.39c-1.48.51-2.97,1.02-4.47,1.5-1.23.4-2.46.79-3.7,1.16-.6.19-1.2.37-1.8.54-.84.25-1.68.49-2.52.73-.7.2-1.41.39-2.12.58-.62.17-1.25.34-1.88.5-1.08.28-2.17.56-3.26.82-.51.13-1.01.25-1.51.36-.48.12-.96.23-1.45.34-.74.17-1.49.34-2.24.5-.87.19-1.74.38-2.61.55-4.49.92-9.03,1.7-13.61,2.33-.84.12-1.68.23-2.53.33-5.3.67-10.66,1.15-16.08,1.42-1.72.09-3.44.15-5.16.2-1.96.05-3.92.08-5.89.08s-3.93-.03-5.89-.08c-1.72-.05-3.44-.11-5.16-.2-5.42-.27-10.78-.75-16.08-1.42-.85-.1-1.69-.21-2.53-.33-4.58-.63-9.12-1.41-13.61-2.33-.87-.17-1.74-.36-2.61-.55-.75-.16-1.5-.33-2.24-.5-.49-.11-.97-.22-1.45-.34-.5-.11-1-.23-1.51-.36-1.09-.26-2.18-.54-3.26-.82-.63-.16-1.26-.33-1.88-.5-.71-.19-1.42-.38-2.12-.58-.84-.24-1.68-.48-2.52-.73-.6-.17-1.2-.35-1.8-.54-1.24-.37-2.47-.76-3.7-1.16-1.5-.48-2.99-.98-4.47-1.5l-1.11-.39c-.63-.23-1.26-.45-1.88-.68-1.48-.54-2.96-1.1-4.43-1.68-.64-.24-1.27-.49-1.9-.75-4.39-1.76-8.7-3.67-12.94-5.71-.78-.37-1.56-.75-2.34-1.14-1.55-.77-3.1-1.56-4.63-2.37-.77-.4-1.53-.81-2.29-1.22-.76-.41-1.51-.83-2.27-1.25-.76-.42-1.51-.85-2.26-1.28-2.27-1.3-4.51-2.64-6.73-4.03-.66-.41-1.32-.83-1.98-1.25-2.97-1.9-5.9-3.87-8.78-5.91l-2.04-1.47c-.67-.49-1.33-.98-1.99-1.47-.72-.53-1.43-1.07-2.14-1.62-.69-.52-1.37-1.05-2.04-1.58-.72-.56-1.44-1.13-2.15-1.71-.63-.5-1.25-1.01-1.87-1.52-.69-.57-1.38-1.14-2.06-1.72-.59-.5-1.18-1-1.77-1.51-.08-.07-.16-.14-.24-.21-.55-.47-1.1-.95-1.65-1.44-.7-.62-1.39-1.24-2.08-1.86-1.27-1.15-2.53-2.32-3.77-3.51-1.87-1.77-3.7-3.58-5.5-5.42-.6-.61-1.2-1.23-1.79-1.85-.66-.69-1.31-1.38-1.95-2.07-.51-.54-1-1.08-1.5-1.62-1.18-1.3-2.35-2.61-3.49-3.93-.57-.65-1.13-1.3-1.68-1.95-1.74-2.06-3.45-4.14-5.11-6.26-.46-.59-.91-1.18-1.37-1.77-3.15-4.09-6.15-8.29-8.99-12.61-.44-.66-.88-1.33-1.31-2-.06-.09-.12-.18-.17-.27-.44-.69-.89-1.38-1.32-2.08-.46-.73-.91-1.47-1.36-2.2-.29-.47-.57-.94-.86-1.42-.31-.51-.61-1.02-.91-1.54-.43-.73-.86-1.46-1.27-2.19-.74-1.28-1.46-2.57-2.16-3.86-.28-.51-.56-1.03-.84-1.55-1.76-3.29-3.43-6.64-5.02-10.03-.32-.67-.63-1.34-.93-2.01-1.14-2.49-2.23-5.01-3.27-7.55-.29-.7-.57-1.4-.85-2.1-2.36-5.93-4.47-11.99-6.3-18.16-.42-1.4-.82-2.8-1.21-4.21-.79-2.88-1.52-5.78-2.19-8.71-.19-.8-.37-1.6-.54-2.4-.38-1.72-.74-3.45-1.07-5.2-.28-1.44-.54-2.88-.78-4.33-.51-2.93-.95-5.88-1.33-8.86-.22-1.72-.43-3.45-.6-5.19-.41-3.88-.71-7.8-.9-11.74-.07-1.45-.13-2.91-.17-4.37-.03-1.02-.05-2.04-.07-3.06-.01-.92-.02-1.84-.02-2.77"/>
  </g>
</svg>