<?xml version="1.0" encoding="UTF-8"?>
<svg id="Layer_1" data-name="Layer 1" xmlns="http://www.w3.org/2000/svg" viewBox="0 0 622 622">
  <defs>
    <style>
      .cls-1 {
        fill: #24252b;
      }

      .cls-2 {
        fill: #fff;
      }
    </style>
  </defs>
  <g id="TelDrive">
    <circle class="cls-1" cx="311" cy="311" r="310"/>
    <path class="cls-2" d="M446.42,156.22l-216.53,85.66-29.96,11.85-25.21,9.97-9.38,3.71c-24.19,9.57-20.78,44.82,4.79,49.57l59.76,11.12v88.17c0,23.07,27.96,34.56,44.18,18.15l36.8-37.23,64.66,63.4,3.71,3.63c9.08,8.9,24.4,4.44,27.28-7.94h0s21.28-91.38,21.28-91.38l44.82-192.4h0c2.89-12.41-9.35-22.96-21.2-18.27l-5.01,1.98ZM399.07,359.56l-16.95,72.79-53.83-52.78-41.75-40.94-16.55-16.12,166.82-124.99-37.73,162.04Z"/>
  </g>
</svg>