<?xml version="1.0" encoding="UTF-8"?>
<svg id="Layer_1" data-name="Layer 1" xmlns="http://www.w3.org/2000/svg" viewBox="0 0 622 622">
  <defs>
    <style>
      .cls-1 {
        fill: #24252b;
      }

      .cls-2 {
        fill: #fff;
      }
    </style>
  </defs>
  <g id="Yacht">
    <circle class="cls-1" cx="311" cy="311" r="310"/>
    <path class="cls-2" d="M528.51,204.86h-5.21s-1.51-.01-1.51-.01c-33.93,0-67.9,2.43-100.96,7.24-12.84,1.87-25.59,4.1-38.21,6.69-6.57,1.34-13.32,1.57-19.99.78-31.79-3.75-63.84-5.69-95.55-5.78-.85-.01-1.69-.01-2.54-.01s-1.68,0-2.53.01h-.43l-.44.05c-15.56,2.03-29.62,8.08-40.64,17.51-3.27,2.79-6.3,5.91-9.04,9.27-.72.88-1.21,1.92-1.42,3.04l-7.57,39.72c-.18.93-.76,1.74-1.6,2.19l-.07.04c-2.23,1.22-4.91-.56-4.66-3.09l1.6-16.4c.02-.23.03-.47.03-.7,0-4.87-5.06-8.29-9.65-6.25-5,2.21-9.84,4.85-14.41,7.83-5.54,3.63-10.75,7.82-15.49,12.46-1.26,1.24-1.99,2.92-1.99,4.68h0s-.02.72-.02.72l-.55,22.89c-.08,3.09-1.65,5.96-4.22,7.68-16.89,11.26-33.36,23.38-49.06,36.1-1.05.85-1.83,1.99-2.23,3.28l-7.7,24.47-2.98,9.46c-.22.7-.32,1.4-.32,2.08,0,3.87,3.31,7.18,7.45,6.83,15.63-1.32,31.31-2.31,46.93-2.98,15.62-.67,31.17-1,46.55-1h.1c6.32,0,12.22-3.15,15.75-8.39,1.04-1.55,2.08-3.09,3.12-4.64,2.21-3.29,5.86-5.32,9.82-5.48,12.91-.51,25.23-.47,36.9-.04,4.99.19,9.86-1.57,13.54-4.95,7.68-7.05,15.36-14.1,23.03-21.15,2.62-2.41,6.15-3.58,9.69-3.2,12.34,1.3,23.76,3.24,34.23,5.54,8.46,1.86,17.1-2.24,20.97-9.99,2.44-4.89,4.89-9.78,7.33-14.67,3.03-6.06,10.36-8.57,16.46-5.63,11.67,5.62,26.28,13.61,41.85,24.64,9.36,6.63,22.47,3.35,27.65-6.88,3.07-6.05,6.21-12.05,9.42-18,15.92-29.44,33.68-57.61,53.18-84.31,5.04-6.91,10.28-13.82,15.57-20.54l3.21-4.1c2.23-2.84.21-7.01-3.4-7.01ZM448.07,242.12c-3.25,4.27-6.5,8.53-9.75,12.8-.58.77-1.5,1.2-2.46,1.15-9.48-.49-19.45-.7-29.89-.55-19.74.28-37.98,1.83-54.47,4.05-.68.09-1.36-.06-1.93-.42-.22-.14-.44-.28-.64-.41-2.18-1.37-1.65-4.69.85-5.3.02,0,.04-.01.06-.01,32.57-7.96,64.53-13.11,95.64-15.98,2.52-.23,4.12,2.65,2.59,4.67Z"/>
  </g>
</svg>