<?xml version="1.0" encoding="UTF-8"?>
<svg id="Layer_1" data-name="Layer 1" xmlns="http://www.w3.org/2000/svg" viewBox="0 0 622 622">
  <defs>
    <style>
      .cls-1, .cls-2 {
        fill: #24252b;
      }

      .cls-3 {
        fill: #fff;
      }

      .cls-2 {
        fill-rule: evenodd;
      }
    </style>
  </defs>
  <circle class="cls-1" cx="311" cy="311" r="310"/>
  <polygon class="cls-2" points="306.68 393.19 307.62 393.19 307.15 393.65 306.68 393.19"/>
  <polygon class="cls-2" points="306.68 393.19 307.62 393.19 307.15 393.65 306.68 393.19"/>
  <g>
    <path class="cls-3" d="M341.56,134.19h0c7.29,19.75,31.13,27.5,48.65,15.81h0c25.17-16.8,57.65,6.8,49.44,35.92h0c-5.71,20.27,9.02,40.55,30.06,41.38h0c30.24,1.2,42.64,39.38,18.89,58.12h0c-16.53,13.04-16.53,38.11,0,51.15h0c23.76,18.74,11.35,56.93-18.89,58.12h0c-21.04.83-35.77,21.11-30.06,41.38h0c8.2,29.13-24.28,52.73-49.44,35.92h0c-17.51-11.69-41.35-3.95-48.65,15.81h0c-10.48,28.39-50.63,28.39-61.11,0h0c-7.29-19.75-31.13-27.5-48.65-15.81h0c-25.17,16.8-57.65-6.8-49.44-35.92h0c5.71-20.27-9.02-40.55-30.06-41.38h0c-30.24-1.2-42.64-39.38-18.89-58.12h0c16.53-13.04,16.53-38.11,0-51.15h0c-23.76-18.74-11.35-56.93,18.89-58.12h0c21.04-.83,35.77-21.11,30.06-41.38h0c-8.2-29.13,24.28-52.73,49.44-35.92h0c17.51,11.69,41.35,3.95,48.65-15.81h0c10.48-28.39,50.63-28.39,61.11,0Z"/>
    <path class="cls-1" d="M365.11,393.65h-108.21c-17.34,0-31.45-14.11-31.45-31.45,0-5.69,4.62-10.31,10.31-10.31s10.31,4.62,10.31,10.31c0,5.97,4.86,10.83,10.83,10.83h108.21c5.97,0,10.83-4.86,10.83-10.83s4.62-10.31,10.31-10.31,10.31,4.62,10.31,10.31c0,17.34-14.11,31.45-31.45,31.45Z"/>
    <path class="cls-1" d="M261.32,302.7l42.9,42.9c3.74,3.74,9.8,3.74,13.55,0l42.9-42.9c3.69-3.69,3.75-9.67.12-13.43l-.13-.13c-3.72-3.85-9.88-3.91-13.66-.12l-26.43,26.43v-90.92c0-5.29-4.29-9.58-9.58-9.58h0c-5.29,0-9.58,4.29-9.58,9.58v90.92l-26.43-26.43c-3.79-3.79-9.94-3.73-13.66.12l-.13.13c-3.63,3.76-3.58,9.73.12,13.43Z"/>
  </g>
</svg>